<svg width="24" height="24" viewBox="0 0 24 24" fill="none" xmlns="http://www.w3.org/2000/svg">
<path d="M19.6125 7.40156C21.2672 7.0125 22.5 5.52656 22.5 3.75C22.5 1.67812 20.8219 0 18.75 0C16.7156 0 15.0609 1.61719 15 3.63281L6.38437 7.08281C5.70469 6.4125 4.77656 6 3.75 6C1.67812 6 0 7.67812 0 9.75C0 11.8219 1.67812 13.5 3.75 13.5C4.32187 13.5 4.86562 13.3734 5.34844 13.1437L12.1734 19.1156C12.0609 19.4719 12 19.8563 12 20.25C12 22.3219 13.6781 24 15.75 24C17.8219 24 19.5 22.3219 19.5 20.25C19.5 18.9516 18.8438 17.8078 17.8406 17.1375L19.6125 7.40156ZM7.32656 10.8844C7.42969 10.5609 7.49062 10.2188 7.5 9.86719L16.1156 6.42188C16.2844 6.58594 16.4625 6.73594 16.6594 6.86719L14.8875 16.5984C14.6297 16.6594 14.3812 16.7438 14.1469 16.8563L7.32656 10.8844Z" fill="#4779FF"/>
</svg>
