<svg width="135" height="22" viewBox="0 0 135 22" fill="none" xmlns="http://www.w3.org/2000/svg">
<path d="M27.839 18H24.4385L28.8554 4.90909H33.0677L37.4846 18H34.0841L31.0095 8.20739H30.9072L27.839 18ZM27.3852 12.848H34.4932V15.2514H27.3852V12.848ZM43.8208 8.18182V10.483H37.6269V8.18182H43.8208ZM38.9244 5.82955H42.0502V14.9126C42.0502 15.1044 42.08 15.2599 42.1396 15.3793C42.2036 15.4943 42.2952 15.5774 42.4145 15.6286C42.5338 15.6754 42.6766 15.6989 42.8428 15.6989C42.9621 15.6989 43.0878 15.6882 43.2199 15.6669C43.3563 15.6413 43.4585 15.62 43.5267 15.603L43.9997 17.8594C43.8506 17.902 43.6396 17.9553 43.3669 18.0192C43.0985 18.0831 42.7767 18.1236 42.4017 18.1406C41.6688 18.1747 41.0402 18.0895 40.5161 17.8849C39.9962 17.6761 39.5977 17.3523 39.3208 16.9134C39.048 16.4744 38.9159 15.9226 38.9244 15.2578V5.82955ZM49.8932 18.1854C48.8619 18.1854 47.9756 17.9744 47.2341 17.5526C46.4969 17.1264 45.928 16.5341 45.5274 15.7756C45.1311 15.0128 44.933 14.1286 44.933 13.1229C44.933 12.1129 45.1311 11.2287 45.5274 10.4702C45.928 9.70739 46.4969 9.11506 47.2341 8.69318C47.9756 8.26705 48.8619 8.05398 49.8932 8.05398C50.9244 8.05398 51.8087 8.26705 52.5459 8.69318C53.2874 9.11506 53.8563 9.70739 54.2526 10.4702C54.6531 11.2287 54.8534 12.1129 54.8534 13.1229C54.8534 14.1286 54.6531 15.0128 54.2526 15.7756C53.8563 16.5341 53.2874 17.1264 52.5459 17.5526C51.8087 17.9744 50.9244 18.1854 49.8932 18.1854ZM49.9124 15.8267C50.2874 15.8267 50.6048 15.7116 50.8648 15.4815C51.1247 15.2514 51.3229 14.9318 51.4593 14.5227C51.5999 14.1136 51.6702 13.6406 51.6702 13.1037C51.6702 12.5582 51.5999 12.081 51.4593 11.6719C51.3229 11.2628 51.1247 10.9432 50.8648 10.7131C50.6048 10.483 50.2874 10.3679 49.9124 10.3679C49.5246 10.3679 49.1965 10.483 48.928 10.7131C48.6638 10.9432 48.4614 11.2628 48.3208 11.6719C48.1844 12.081 48.1162 12.5582 48.1162 13.1037C48.1162 13.6406 48.1844 14.1136 48.3208 14.5227C48.4614 14.9318 48.6638 15.2514 48.928 15.4815C49.1965 15.7116 49.5246 15.8267 49.9124 15.8267ZM56.4546 18V8.18182H59.4269V9.98438H59.5356C59.7401 9.38778 60.0853 8.9169 60.5711 8.57173C61.0569 8.22656 61.6365 8.05398 62.3097 8.05398C62.9916 8.05398 63.5754 8.22869 64.0612 8.57812C64.547 8.92756 64.8559 9.39631 64.988 9.98438H65.0903C65.2735 9.40057 65.6315 8.93395 66.1642 8.58452C66.6968 8.23082 67.3254 8.05398 68.0498 8.05398C68.9788 8.05398 69.733 8.35227 70.3126 8.94886C70.8921 9.54119 71.1819 10.3551 71.1819 11.3906V18H68.0562V12.1065C68.0562 11.6165 67.9305 11.2436 67.6791 10.9879C67.4276 10.728 67.1017 10.598 66.7011 10.598C66.2707 10.598 65.9319 10.7386 65.6847 11.0199C65.4419 11.2969 65.3204 11.6697 65.3204 12.1385V18H62.3161V12.0746C62.3161 11.6186 62.1926 11.2585 61.9454 10.9943C61.6982 10.7301 61.3722 10.598 60.9674 10.598C60.6947 10.598 60.4539 10.6641 60.2451 10.7962C60.0363 10.924 59.8722 11.1072 59.7529 11.3459C59.6379 11.5845 59.5803 11.8658 59.5803 12.1896V18H56.4546ZM73.1187 18V8.18182H76.2444V18H73.1187ZM74.6847 7.03764C74.2458 7.03764 73.8687 6.89276 73.5534 6.60298C73.238 6.30895 73.0803 5.95526 73.0803 5.5419C73.0803 5.13281 73.238 4.78338 73.5534 4.49361C73.8687 4.19957 74.2458 4.05256 74.6847 4.05256C75.1279 4.05256 75.5051 4.19957 75.8161 4.49361C76.1315 4.78338 76.2892 5.13281 76.2892 5.5419C76.2892 5.95526 76.1315 6.30895 75.8161 6.60298C75.5051 6.89276 75.1279 7.03764 74.6847 7.03764ZM82.817 18.1854C81.7815 18.1854 80.893 17.9723 80.1515 17.5462C79.4143 17.12 78.8476 16.5277 78.4513 15.7692C78.055 15.0064 77.8568 14.1243 77.8568 13.1229C77.8568 12.1172 78.055 11.2351 78.4513 10.4766C78.8518 9.71378 79.4207 9.11932 80.1579 8.69318C80.8994 8.26705 81.7836 8.05398 82.8106 8.05398C83.7183 8.05398 84.5088 8.21804 85.1821 8.54616C85.8596 8.87429 86.3881 9.33878 86.7673 9.93963C87.1508 10.5362 87.3532 11.2372 87.3746 12.0426H84.4534C84.3937 11.5398 84.2233 11.1456 83.942 10.8601C83.665 10.5746 83.3028 10.4318 82.8554 10.4318C82.4932 10.4318 82.1757 10.5341 81.903 10.7386C81.6302 10.9389 81.4172 11.2372 81.2638 11.6335C81.1146 12.0256 81.04 12.5114 81.04 13.0909C81.04 13.6705 81.1146 14.1605 81.2638 14.5611C81.4172 14.9574 81.6302 15.2578 81.903 15.4624C82.1757 15.6626 82.4932 15.7628 82.8554 15.7628C83.1452 15.7628 83.4008 15.701 83.6224 15.5774C83.8483 15.4538 84.0336 15.2727 84.1785 15.0341C84.3234 14.7912 84.415 14.4972 84.4534 14.152H87.3746C87.3447 14.9616 87.1423 15.669 86.7673 16.2741C86.3966 16.8793 85.8746 17.3501 85.2013 17.6868C84.5322 18.0192 83.7375 18.1854 82.817 18.1854Z" fill="#E7EDFF"/>
<path d="M91.6659 10.598V9.27273H98.629V10.598H95.9316V18H94.3634V10.598H91.6659ZM101.209 18.1278C100.57 18.1278 100.016 17.9872 99.5471 17.706C99.0784 17.4247 98.7147 17.0312 98.4562 16.5256C98.2005 16.0199 98.0727 15.429 98.0727 14.7528C98.0727 14.0767 98.2005 13.4844 98.4562 12.9759C98.7147 12.4673 99.0784 12.0724 99.5471 11.7912C100.016 11.5099 100.57 11.3693 101.209 11.3693C101.848 11.3693 102.402 11.5099 102.871 11.7912C103.34 12.0724 103.702 12.4673 103.958 12.9759C104.216 13.4844 104.345 14.0767 104.345 14.7528C104.345 15.429 104.216 16.0199 103.958 16.5256C103.702 17.0312 103.34 17.4247 102.871 17.706C102.402 17.9872 101.848 18.1278 101.209 18.1278ZM101.218 16.892C101.564 16.892 101.854 16.7969 102.087 16.6065C102.32 16.4134 102.493 16.1548 102.607 15.831C102.723 15.5071 102.781 15.1463 102.781 14.7486C102.781 14.348 102.723 13.9858 102.607 13.6619C102.493 13.3352 102.32 13.0753 102.087 12.8821C101.854 12.6889 101.564 12.5923 101.218 12.5923C100.862 12.5923 100.567 12.6889 100.331 12.8821C100.098 13.0753 99.9235 13.3352 99.8071 13.6619C99.6934 13.9858 99.6366 14.348 99.6366 14.7486C99.6366 15.1463 99.6934 15.5071 99.8071 15.831C99.9235 16.1548 100.098 16.4134 100.331 16.6065C100.567 16.7969 100.862 16.892 101.218 16.892ZM107.91 18.1278C107.271 18.1278 106.717 17.9872 106.248 17.706C105.779 17.4247 105.416 17.0312 105.157 16.5256C104.901 16.0199 104.773 15.429 104.773 14.7528C104.773 14.0767 104.901 13.4844 105.157 12.9759C105.416 12.4673 105.779 12.0724 106.248 11.7912C106.717 11.5099 107.271 11.3693 107.91 11.3693C108.549 11.3693 109.103 11.5099 109.572 11.7912C110.041 12.0724 110.403 12.4673 110.658 12.9759C110.917 13.4844 111.046 14.0767 111.046 14.7528C111.046 15.429 110.917 16.0199 110.658 16.5256C110.403 17.0312 110.041 17.4247 109.572 17.706C109.103 17.9872 108.549 18.1278 107.91 18.1278ZM107.918 16.892C108.265 16.892 108.555 16.7969 108.788 16.6065C109.021 16.4134 109.194 16.1548 109.308 15.831C109.424 15.5071 109.482 15.1463 109.482 14.7486C109.482 14.348 109.424 13.9858 109.308 13.6619C109.194 13.3352 109.021 13.0753 108.788 12.8821C108.555 12.6889 108.265 12.5923 107.918 12.5923C107.563 12.5923 107.268 12.6889 107.032 12.8821C106.799 13.0753 106.624 13.3352 106.508 13.6619C106.394 13.9858 106.337 14.348 106.337 14.7486C106.337 15.1463 106.394 15.5071 106.508 15.831C106.624 16.1548 106.799 16.4134 107.032 16.6065C107.268 16.7969 107.563 16.892 107.918 16.892ZM113.298 9.27273V18H111.756V9.27273H113.298ZM115.691 15.946L115.686 14.0838H115.934L118.286 11.4545H120.088L117.195 14.6761H116.875L115.691 15.946ZM114.284 18V9.27273H115.827V18H114.284ZM118.392 18L116.262 15.0213L117.301 13.9347L120.238 18H118.392ZM120.516 18V11.4545H122.059V18H120.516ZM121.292 10.5256C121.048 10.5256 120.837 10.4446 120.661 10.2827C120.485 10.1179 120.397 9.92045 120.397 9.69034C120.397 9.45739 120.485 9.25994 120.661 9.09801C120.837 8.93324 121.048 8.85085 121.292 8.85085C121.539 8.85085 121.749 8.93324 121.923 9.09801C122.099 9.25994 122.187 9.45739 122.187 9.69034C122.187 9.92045 122.099 10.1179 121.923 10.2827C121.749 10.4446 121.539 10.5256 121.292 10.5256ZM126.314 11.4545V12.6477H122.551V11.4545H126.314ZM123.48 9.88636H125.023V16.0312C125.023 16.2386 125.054 16.3977 125.116 16.5085C125.182 16.6165 125.267 16.6903 125.372 16.7301C125.477 16.7699 125.594 16.7898 125.721 16.7898C125.818 16.7898 125.906 16.7827 125.986 16.7685C126.068 16.7543 126.131 16.7415 126.173 16.7301L126.433 17.9361C126.351 17.9645 126.233 17.9957 126.079 18.0298C125.929 18.0639 125.744 18.0838 125.525 18.0895C125.139 18.1009 124.791 18.0426 124.481 17.9148C124.172 17.7841 123.926 17.5824 123.744 17.3097C123.565 17.0369 123.477 16.696 123.48 16.2869V9.88636Z" fill="#A8B6FF"/>
<path d="M14.7094 7.55117C15.9504 7.25937 16.875 6.14492 16.875 4.8125C16.875 3.25859 15.6164 2 14.0625 2C12.5367 2 11.2957 3.21289 11.25 4.72461L4.78828 7.31211C4.27852 6.80938 3.58242 6.5 2.8125 6.5C1.25859 6.5 0 7.75859 0 9.3125C0 10.8664 1.25859 12.125 2.8125 12.125C3.24141 12.125 3.64922 12.0301 4.01133 11.8578L9.13008 16.3367C9.0457 16.6039 9 16.8922 9 17.1875C9 18.7414 10.2586 20 11.8125 20C13.3664 20 14.625 18.7414 14.625 17.1875C14.625 16.2137 14.1328 15.3559 13.3805 14.8531L14.7094 7.55117ZM5.49492 10.1633C5.57227 9.9207 5.61797 9.66406 5.625 9.40039L12.0867 6.81641C12.2133 6.93945 12.3469 7.05195 12.4945 7.15039L11.1656 14.4488C10.9723 14.4945 10.7859 14.5578 10.6102 14.6422L5.49492 10.1633Z" fill="#4779FF"/>
</svg>
